<?xml version="1.0" encoding="UTF-8" standalone="no"?>
<svg
   version="1.1"
   width="512"
   height="512"
   id="svg2"
   sodipodi:docname="camera-black.svg"
   inkscape:version="1.4.2 (ebf0e940d0, 2025-05-08)"
   xmlns:inkscape="http://www.inkscape.org/namespaces/inkscape"
   xmlns:sodipodi="http://sodipodi.sourceforge.net/DTD/sodipodi-0.dtd"
   xmlns="http://www.w3.org/2000/svg"
   xmlns:svg="http://www.w3.org/2000/svg">
  <defs
     id="defs2" />
  <sodipodi:namedview
     id="namedview2"
     pagecolor="#ffffff"
     bordercolor="#000000"
     borderopacity="0.25"
     inkscape:showpageshadow="2"
     inkscape:pageopacity="0.0"
     inkscape:pagecheckerboard="0"
     inkscape:deskcolor="#d1d1d1"
     inkscape:zoom="1.5625"
     inkscape:cx="273.92"
     inkscape:cy="255.36"
     inkscape:window-width="1920"
     inkscape:window-height="1011"
     inkscape:window-x="0"
     inkscape:window-y="0"
     inkscape:window-maximized="1"
     inkscape:current-layer="svg2" />
  <path
     d="m 184.35324,33.817309 c 1.30958,-0.008 2.61915,-0.01607 3.96841,-0.02435 1.4328,-0.003 2.86561,-0.006 4.34183,-0.0091 1.52775,-0.007 3.0555,-0.0145 4.58324,-0.02236 5.01504,-0.02359 10.03009,-0.03526 15.04517,-0.04645 1.73091,-0.0045 3.46182,-0.0092 5.19274,-0.01387 8.13793,-0.02139 16.27585,-0.03737 24.4138,-0.04673 9.36875,-0.01095 18.7372,-0.04046 28.10585,-0.08591 7.25612,-0.03398 14.51216,-0.05051 21.76836,-0.05422 4.32634,-0.0026 8.65236,-0.01254 12.97861,-0.04095 4.078,-0.02634 8.15548,-0.03082 12.23354,-0.01936 2.18883,8.12e-4 4.37763,-0.02049 6.56634,-0.04275 13.63309,0.07964 24.32044,3.611917 35.18724,11.801391 0.9728,0.648534 1.9456,1.297067 2.94788,1.965253 9.84381,9.325716 15.07396,22.503049 20.82763,34.532586 1.14575,2.38668 2.30534,4.766272 3.46606,7.145703 0.33939,0.721848 0.67877,1.443695 1.02845,2.187417 3.09176,6.321694 6.0535,10.443971 12.78261,12.899361 6.13868,1.22489 12.34604,1.07989 18.58053,1.05638 2.66275,0.0173 5.32549,0.0356 7.98823,0.0548 4.15419,0.0184 8.30791,0.0285 12.46214,0.0206 21.79733,-0.016 38.53964,0.6933 54.8434,16.61171 10.50583,11.07212 14.7832,23.07177 14.73265,38.09959 0.005,1.11615 0.0102,2.2323 0.0154,3.38228 0.0142,3.73091 0.0124,7.46163 0.0105,11.19257 0.007,2.67889 0.0144,5.35778 0.0229,8.03667 0.0178,6.51682 0.0248,13.0336 0.0261,19.55045 0.001,5.30098 0.006,10.60195 0.0128,15.90293 0.0198,15.04847 0.0301,30.09691 0.0284,45.14539 -9e-5,0.81049 -1.8e-4,1.62098 -2.7e-4,2.45603 -9e-5,0.81148 -1.8e-4,1.62297 -2.8e-4,2.45905 -9.1e-4,13.1418 0.0206,26.28345 0.0523,39.42521 0.0323,13.5127 0.0478,27.02533 0.0458,40.53807 -7.4e-4,7.57876 0.005,15.15736 0.0296,22.73608 0.0218,7.13169 0.0219,14.26307 0.006,21.39478 -0.002,2.61111 0.003,5.22224 0.0165,7.83331 0.10222,20.9755 -1.81394,35.64121 -16.63866,51.61975 -12.76419,12.08039 -26.73844,14.26771 -43.72055,14.19214 -1.72326,0.005 -3.44651,0.0109 -5.16976,0.0183 -4.71176,0.0162 -9.4233,0.0115 -14.13508,0.003 -5.09077,-0.005 -10.18148,0.009 -15.27223,0.0202 -9.96411,0.0193 -19.92813,0.0203 -29.89224,0.0144 -8.10092,-0.005 -16.20181,-0.003 -24.30272,0.003 -1.73102,10e-4 -1.73102,10e-4 -3.49701,0.003 -2.34456,0.002 -4.68912,0.003 -7.03368,0.005 -21.97523,0.0154 -43.95042,0.009 -65.92566,-0.004 -20.09122,-0.0111 -40.18233,0.003 -60.27354,0.0302 -20.64463,0.0274 -41.2892,0.0382 -61.93384,0.0307 -11.58441,-0.004 -23.16873,-10e-4 -34.75313,0.0183 -9.8616,0.0165 -19.72306,0.0172 -29.584663,-0.002 -5.028219,-0.01 -10.056166,-0.012 -15.084371,0.005 -4.609502,0.0156 -9.2185,0.0102 -13.827973,-0.0115 -1.660968,-0.004 -3.321976,-9.7e-4 -4.982907,0.0108 -17.856238,0.1174 -30.768811,-4.48326 -43.8858,-16.65307 C 8.475961,438.28661 4.460895,425.57663 4.557746,410.87862 c -0.006,-1.11903 -0.0121,-2.23807 -0.01833,-3.39101 -0.01597,-3.72053 -0.0081,-7.44061 -6e-5,-11.16117 -0.0064,-2.67939 -0.01423,-5.35878 -0.02336,-8.03816 -0.01803,-6.50514 -0.02026,-13.01013 -0.01436,-19.51529 0.0046,-5.29127 0.0029,-10.5825 -0.0031,-15.87378 -8.4e-4,-0.75507 -0.0017,-1.51014 -0.0025,-2.28809 -0.0017,-1.53427 -0.0034,-3.06854 -0.0052,-4.60282 -0.01539,-14.36612 -0.0093,-28.73217 0.0036,-43.09829 0.01115,-13.11981 -0.0034,-26.23944 -0.03025,-39.35922 -0.02744,-13.49758 -0.03817,-26.99509 -0.03071,-40.49271 0.0039,-7.56739 0.0015,-15.13465 -0.01825,-22.70203 -0.01741,-7.11793 -0.01289,-14.23552 0.0082,-21.35343 0.0041,-2.60568 6.76e-4,-5.21138 -0.0111,-7.81703 -0.08744,-20.95231 1.84626,-35.61442 16.653778,-51.57441 11.716003,-11.08843 24.890509,-14.25581 40.607531,-14.21269 1.306154,-0.0122 2.612309,-0.0243 3.958044,-0.0369 5.540809,-0.0511 11.081555,-0.0644 16.622557,-0.081 4.065883,-0.0177 8.131283,-0.0548 12.197019,-0.0927 1.239078,0.003 2.478156,0.007 3.754781,0.0103 11.932824,-0.1038 11.932824,-0.1038 22.127164,-5.632522 6.27938,-7.465277 10.0124,-17.356784 14.16119,-26.129434 8.28454,-17.442276 17.70086,-30.492113 36.44822,-37.514737 4.6058,-1.502947 8.53991,-2.083661 13.41063,-2.104206 z M 165.58203,181.09584 c -0.8266,0.81501 -1.65319,1.63002 -2.50483,2.46973 -17.18967,18.01313 -28.10051,43.7418 -31.18523,68.2794 -0.15056,1.12914 -0.30111,2.25828 -0.45622,3.42164 -3.28432,31.79817 6.12232,64.06424 25.92007,89.08126 21.78878,26.78239 51.77446,44.28401 86.23098,48.32857 34.64654,3.04281 66.49802,-7.41281 93.53378,-29.09277 1.97742,-1.6702 3.944,-3.3534 5.89576,-5.05351 0.68907,-0.59353 1.37813,-1.18705 2.08808,-1.79856 16.05725,-14.91031 26.91003,-35.73861 32.72498,-56.59755 0.35901,-1.22034 0.71802,-2.44068 1.08791,-3.69801 4.76542,-19.17198 4.64116,-42.50432 -1.08791,-61.4361 -0.22908,-0.75837 -0.45817,-1.51675 -0.6942,-2.2981 -10.20997,-33.00035 -31.87625,-59.71032 -62.19391,-76.31204 -50.0935,-26.33137 -110.08267,-15.13751 -149.35926,24.70604 z m 255.62332,-12.77415 c -2.47518,5.14077 -2.72009,9.41135 -1.82488,15.02016 2.61625,5.43374 5.79628,8.61377 11.23002,11.23002 5.60881,0.89521 9.87939,0.6503 15.02016,-1.82488 4.02492,-3.6416 6.98546,-6.55806 7.86978,-12.09859 0.28752,-6.38291 -0.50147,-10.38884 -4.9219,-15.27459 -4.88575,-4.42043 -8.89168,-5.20942 -15.27459,-4.9219 -5.54053,0.88432 -8.45699,3.84486 -12.09859,7.86978 z"
     fill="#000000"
     id="path1"
     style="stroke-width:1.123" />
  <path
     d="m 311.71266,195.34393 c 1.46401,1.22406 2.91374,2.46531 4.35163,3.71994 1.08716,0.86713 2.17433,1.73425 3.29443,2.62765 10.78143,8.99972 17.56919,21.52808 22.53462,34.43142 0.48785,1.2493 0.97569,2.49859 1.47832,3.78574 7.31983,22.46957 4.41161,47.56602 -5.75977,68.50751 -3.49068,6.83687 -7.53023,12.85759 -12.56358,18.66991 -0.67025,0.89029 -1.3405,1.78057 -2.03106,2.69784 -9.20867,10.9158 -21.84411,18.12873 -35.02801,23.13121 -1.24785,0.4864 -2.49569,0.9728 -3.78136,1.47394 -22.46136,7.33432 -47.57661,4.41421 -68.51189,-5.75539 -6.83352,-3.49256 -12.87661,-7.50865 -18.66991,-12.56358 -1.08716,-0.86713 -2.17432,-1.73425 -3.29443,-2.62765 -10.78142,-8.99972 -17.56919,-21.52808 -22.53461,-34.43142 -0.73178,-1.87394 -0.73178,-1.87394 -1.47833,-3.78574 -7.31958,-22.4688 -4.41243,-47.56688 5.75977,-68.50751 3.49256,-6.83352 7.50865,-12.87661 12.56359,-18.66991 1.30068,-1.63074 1.30068,-1.63074 2.62764,-3.29443 8.99972,-10.78142 21.52808,-17.56919 34.43142,-22.53462 1.2493,-0.48784 2.49859,-0.97569 3.78575,-1.47832 27.72053,-9.03042 59.84359,-3.0574 82.82578,14.60341 z"
     fill="#000000"
     id="path2"
     style="stroke-width:1.123" />
</svg>
