<?xml version="1.0" encoding="UTF-8" standalone="no"?>
<svg
   version="1.1"
   width="512"
   height="512"
   id="svg1"
   sodipodi:docname="play-button-black.svg"
   inkscape:version="1.4.2 (ebf0e940d0, 2025-05-08)"
   xmlns:inkscape="http://www.inkscape.org/namespaces/inkscape"
   xmlns:sodipodi="http://sodipodi.sourceforge.net/DTD/sodipodi-0.dtd"
   xmlns="http://www.w3.org/2000/svg"
   xmlns:svg="http://www.w3.org/2000/svg">
  <defs
     id="defs1" />
  <sodipodi:namedview
     id="namedview1"
     pagecolor="#ffffff"
     bordercolor="#000000"
     borderopacity="0.25"
     inkscape:showpageshadow="2"
     inkscape:pageopacity="0.0"
     inkscape:pagecheckerboard="0"
     inkscape:deskcolor="#d1d1d1"
     inkscape:zoom="1.5625"
     inkscape:cx="256"
     inkscape:cy="256"
     inkscape:window-width="1920"
     inkscape:window-height="1011"
     inkscape:window-x="0"
     inkscape:window-y="0"
     inkscape:window-maximized="1"
     inkscape:current-layer="svg1" />
  <path
     d="m 193.57253,31.046911 c 4.84718,3.066022 9.73285,6.060121 14.61758,9.057335 1.98504,1.220461 3.97001,2.441045 5.95491,3.661748 0.98578,0.605906 1.97157,1.211813 2.98723,1.83608 4.93207,3.032192 9.86211,6.068135 14.79235,9.103722 1.9684,1.211765 3.93681,2.423512 5.90523,3.635241 64.95756,39.987643 64.95756,39.987643 129.91512,79.975293 0.9745,0.5999 1.94901,1.19979 2.95306,1.81786 1.96697,1.21088 3.9339,2.42184 5.90079,3.63287 4.94273,3.04315 9.88615,6.08501 14.83095,9.12431 13.17736,8.10113 26.34873,16.213 39.45575,24.44321 0.64075,0.40097 1.28149,0.80194 1.94165,1.21506 6.76223,4.24913 13.03438,8.78634 18.9538,14.29531 0.91872,0.8416 0.91872,0.8416 1.85602,1.70023 13.90127,13.70806 22.60678,34.67247 23.69656,54.69262 0.76973,24.80932 -4.47726,47.35132 -20.55585,66.11475 -7.32615,8.26623 -14.86101,14.27537 -24.07518,19.99382 -0.81348,0.505 -1.62697,1.01 -2.4651,1.53031 -5.46622,3.3858 -10.94288,6.75201 -16.42403,10.11019 -5.51889,3.38144 -11.03065,6.77601 -16.54226,10.17095 -1.96838,1.2118 -3.93679,2.42355 -5.90524,3.63524 -0.97436,0.59981 -1.94872,1.19963 -2.95261,1.81762 -103.34156,63.61671 -103.34156,63.61671 -106.29462,65.43456 -1.96698,1.2109 -3.93391,2.42185 -5.90081,3.63288 -4.94271,3.04315 -9.88614,6.08501 -14.83094,9.12432 -9.4954,5.83801 -18.98095,11.69242 -28.44023,17.59683 -8.95104,5.58611 -17.94574,11.0878 -26.95881,16.55881 -6.14603,3.73426 -12.25729,7.5258 -18.34339,11.37054 -23.26445,14.65569 -46.84541,24.43218 -74.39231,17.20822 -11.80376,-3.80126 -22.56832,-9.62845 -32.138092,-17.93385 -0.571502,-0.46361 -1.143004,-0.92721 -1.731823,-1.40488 -15.708249,-13.2947 -24.650494,-35.07372 -27.340091,-55.78957 -0.343148,-4.89595 -0.370266,-9.77217 -0.346092,-14.67871 -0.0031,-1.41769 -0.0075,-2.83536 -0.01289,-4.25304 -0.01126,-3.85178 -0.0058,-7.70336 0.0028,-11.55515 0.0062,-4.17105 -0.0033,-8.34208 -0.01085,-12.51314 -0.01208,-8.15377 -0.0095,-16.30747 -0.0017,-24.46126 0.0062,-6.63086 0.007,-13.26171 0.0039,-19.89258 -4.18e-4,-0.94625 -8.35e-4,-1.89248 -0.0013,-2.8674 -8.71e-4,-1.92269 -0.0018,-3.84539 -0.0027,-5.76808 -0.0078,-17.99966 0.0012,-35.99929 0.01581,-53.99895 0.01218,-15.42122 0.01006,-30.84236 -0.0026,-46.26357 -0.01461,-17.93832 -0.02031,-35.87661 -0.01196,-53.81493 8.67e-4,-1.91535 0.0018,-3.8307 0.0027,-5.74603 4.2e-4,-0.94222 8.41e-4,-1.88444 0.0013,-2.8552 0.0024,-6.61755 -0.0017,-13.2351 -0.0081,-19.85264 -0.0077,-8.07224 -0.0055,-16.14439 0.009,-24.21663 0.0072,-4.11307 0.01002,-8.22601 9.55e-4,-12.33909 -0.0083,-3.77441 -0.0034,-7.54856 0.01084,-11.32297 0.0031,-1.35606 0.0016,-2.71213 -0.0051,-4.06817 C 51.569524,72.241707 60.194459,50.927045 76.685133,32.349066 111.81078,-4.3029 155.90325,7.081554 193.57253,31.046911 Z"
     fill="#000000"
     id="path1"
     style="stroke-width:0.938454" />
</svg>
