<?xml version="1.0" encoding="UTF-8"?>
<svg version="1.1" xmlns="http://www.w3.org/2000/svg" width="512" height="512">
<path d="M0 0 C1.19638509 -0.00507454 2.39277018 -0.01014909 3.62540936 -0.0153774 C4.9413303 -0.01587516 6.25725123 -0.01637292 7.61304855 -0.01688576 C9.02403025 -0.02090148 10.43501079 -0.02533989 11.84598994 -0.03016531 C15.7282033 -0.04212523 19.61040423 -0.04777796 23.49263239 -0.05234647 C27.67832789 -0.05830506 31.86400857 -0.06991456 36.04969406 -0.08063698 C46.1631312 -0.10515958 56.27657325 -0.11979025 66.39003098 -0.13269705 C69.24802344 -0.13640982 72.10601541 -0.14038301 74.96400738 -0.14444971 C92.72124942 -0.16969291 110.47849226 -0.19174071 128.23574829 -0.20417786 C132.34904356 -0.20710745 136.4623388 -0.21006912 140.575634 -0.21308327 C141.59794651 -0.21382932 142.62025902 -0.21457537 143.6735507 -0.21534403 C160.21684779 -0.22798474 176.76003709 -0.26119009 193.30328384 -0.3028851 C210.29887495 -0.34536781 227.29441099 -0.36888042 244.29005504 -0.37409842 C253.82787987 -0.37750593 263.36553643 -0.38918257 272.90330887 -0.42220116 C281.03044696 -0.45029036 289.15738228 -0.46116238 297.28456512 -0.4500057 C301.42638218 -0.44484113 305.56777523 -0.44756085 309.70952988 -0.47247124 C334.62647132 -0.61412711 353.80962363 0.85464411 372.89887619 18.76592064 C384.89158576 31.23094583 390.4974581 46.604873 390.44755173 63.6414547 C390.45208284 64.7825124 390.45661395 65.9235701 390.46128237 67.09920532 C390.47391821 70.91352622 390.47230649 74.72770419 390.47065353 78.54204369 C390.47555419 81.28072203 390.4833887 84.01939042 390.49100876 86.75806236 C390.5075892 93.42023005 390.51311698 100.08236234 390.51423351 106.74454894 C390.51518549 112.16330221 390.51930323 117.58204386 390.52563477 123.00079346 C390.54323989 138.38218851 390.55247489 153.7635557 390.55097382 169.1449609 C390.55085395 170.3875911 390.55085395 170.3875911 390.55073166 171.65532494 C390.5506499 172.48476302 390.55056814 173.31420111 390.5504839 174.16877369 C390.54967143 187.60343947 390.56880116 201.03799302 390.59700839 214.47262635 C390.62577878 228.28509195 390.63954637 242.09750289 390.63782084 255.90999919 C390.63715832 263.65744348 390.6425896 271.40477014 390.66417694 279.15218735 C390.68244364 285.74989161 390.68669136 292.34742493 390.67315809 298.9451436 C390.6666555 302.306921 390.66861162 305.66810519 390.68386459 309.02989388 C390.79327948 334.8235244 390.79327948 334.8235244 386.18012619 345.13701439 C385.67352463 346.35517845 385.16692307 347.57334251 384.64496994 348.82842064 C375.71255428 365.61953447 362.09062734 377.03715426 343.84028244 382.88701439 C338.29148557 384.29127933 332.87771541 384.35112004 327.18012619 384.13701439 C327.05057541 385.75156517 327.05057541 385.75156517 326.91840744 387.39873314 C325.33566368 404.74704175 319.37207824 420.3949508 306.28950119 432.45732689 C286.66338849 448.08552774 267.62186632 448.88321225 243.50073934 448.76131964 C239.327586 448.74576048 235.15450694 448.7593281 230.98134995 448.76906395 C222.82725653 448.78352473 214.67341375 448.77142421 206.51934418 448.74995071 C197.01114725 448.72583769 187.50300648 448.7276613 177.99478576 448.73025662 C161.02542687 448.73393945 144.05618547 448.71318265 127.08686447 448.67900658 C110.64184731 448.64589903 94.19695335 448.6317527 77.75190353 448.63799095 C59.81350481 448.64476228 41.87515753 448.64227524 23.93676639 448.62263155 C22.51268444 448.62107232 22.51268444 448.62107232 21.05983315 448.61948159 C19.1533837 448.61739081 17.24693428 448.61527984 15.34048487 448.61314842 C8.7210003 448.60626835 2.10153162 448.60558089 -4.51795578 448.60703087 C-12.58745055 448.60847382 -20.65684522 448.59872021 -28.72630683 448.57508451 C-32.83923683 448.56326469 -36.9520277 448.55607256 -41.06497383 448.56192207 C-44.83623954 448.56712703 -48.60721237 448.5582901 -52.37842813 448.53864747 C-54.37498007 448.53172819 -56.37156641 448.53931457 -58.36811328 448.5475688 C-76.35971558 448.41277445 -91.54576857 442.26214349 -104.45659256 429.69560814 C-116.68308464 416.45866217 -122.14470166 401.35288324 -122.08057022 383.58151817 C-122.08439577 382.44706758 -122.08822132 381.31261699 -122.09216279 380.14378911 C-122.10244798 376.35787315 -122.0985091 372.57211013 -122.09453201 368.78618431 C-122.09778894 366.06544115 -122.10400064 363.34470639 -122.11001968 360.62396812 C-122.12274234 354.00972693 -122.12456339 347.39552637 -122.12221942 340.781275 C-122.12043324 335.4021066 -122.12219234 330.0229505 -122.12644386 324.64378357 C-122.12733665 323.49348406 -122.12733665 323.49348406 -122.12824747 322.31994617 C-122.12945928 320.76182275 -122.13067341 319.20369933 -122.13188984 317.64557592 C-122.14275618 303.04651663 -122.14060729 288.44748047 -122.134505 273.84841988 C-122.12933766 260.51015906 -122.14058806 247.17197131 -122.15960322 233.83372494 C-122.17900356 220.11954467 -122.1872337 206.40539892 -122.18347996 192.69120485 C-122.18157112 184.99916352 -122.18402444 177.30718436 -122.1981945 169.61515427 C-122.21013737 163.06613991 -122.21148082 156.51722599 -122.19940434 149.96821018 C-122.19353563 146.63093967 -122.19400273 143.29400224 -122.20440674 139.95672035 C-122.21489858 136.32879906 -122.2067533 132.70136566 -122.19409561 129.07346153 C-122.2014699 128.03287108 -122.20884418 126.99228063 -122.21644193 125.92015713 C-122.08853327 108.40678988 -114.98305543 93.01557763 -102.67534256 80.72685814 C-89.90853054 69.14765654 -74.86141705 63.56365406 -57.81987381 64.13701439 C-57.86628006 63.4215847 -57.91268631 62.70615501 -57.96049881 61.96904564 C-58.55592972 45.5308993 -51.70501666 31.14413399 -40.81987381 19.13701439 C-30.4024788 8.39467311 -15.24159493 0.03432815 0 0 Z M-18.19487381 43.38701439 C-23.18881 49.79968245 -24.91964207 56.11799373 -24.81987381 64.13701439 C-24.19327441 64.13723176 -23.566675 64.13744913 -22.92108774 64.13767308 C14.26452785 64.1512061 51.45003184 64.19077117 88.63557974 64.26387001 C93.10632013 64.27263615 97.57706091 64.28118607 102.04780197 64.28960228 C103.38279725 64.29212087 103.38279725 64.29212087 104.74476212 64.29469035 C119.13168014 64.3213177 133.51855831 64.33045237 147.90549845 64.33305582 C162.68167335 64.33612159 177.45773357 64.35814025 192.23385668 64.39753896 C201.34230524 64.42123461 210.45052446 64.43036845 219.55899954 64.4205275 C225.81571114 64.41518773 232.07221832 64.42835454 238.32887173 64.45567729 C241.93192636 64.47087765 245.53452315 64.4782997 249.13759041 64.4636116 C272.92609779 64.37553342 290.8067465 66.72692725 308.82856369 83.63310814 C326.20914852 102.1396777 326.475908 124.6874352 326.49897385 148.49419212 C326.50828942 150.71312888 326.51846047 152.93206217 326.52941513 155.15099144 C326.55654556 161.13131012 326.57181388 167.11160546 326.58484316 173.09196925 C326.60054844 179.35799294 326.62731482 185.62396949 326.65287399 191.88995934 C326.69424133 202.39294994 326.72887232 212.89594718 326.75825119 223.39897728 C326.78850899 234.20954309 326.82289202 245.02008302 326.86274338 255.8306179 C326.8664357 256.83281763 326.8664357 256.83281763 326.87020262 257.85526382 C326.88257862 261.20762059 326.89503488 264.55997705 326.90753102 267.91233337 C327.01065686 295.65385845 327.0999798 323.39541407 327.18012619 351.13701439 C328.78573842 350.99998779 330.39078235 350.85629078 331.99555588 350.7097683 C332.88942001 350.63046074 333.78328415 350.55115318 334.70423508 350.46944237 C341.58506008 349.54558157 347.7482708 344.48106152 351.93403244 339.12138939 C357.76567146 329.83464136 358.33086826 320.29726095 358.31383896 309.65050316 C358.31610452 308.606894 358.31837007 307.56328485 358.32070428 306.48805118 C358.32702485 302.9976552 358.32621616 299.50729826 358.32538986 296.0168972 C358.32838257 293.51157646 358.33178536 291.00625618 358.33556747 288.50093651 C358.3434833 282.40546512 358.34662165 276.31000798 358.34717985 270.21453193 C358.34765575 265.25722112 358.34971415 260.29991349 358.35288048 255.34260368 C358.36168329 241.27327413 358.36630048 227.20395219 358.36555 213.13461986 C358.36551005 212.37679677 358.36547009 211.61897369 358.36542892 210.83818626 C358.36538804 210.07943281 358.36534716 209.32067935 358.36530504 208.53893337 C358.36489875 196.24746312 358.37446495 183.95602352 358.38856729 171.66456214 C358.40294878 159.02961658 358.40983649 146.39468595 358.40897352 133.75973201 C358.40864214 126.67188964 358.41136299 119.58407941 358.42215157 112.49624443 C358.43223661 105.82811064 358.43190311 99.16005582 358.42463493 92.49191475 C358.42359063 90.04866626 358.42594279 87.60541353 358.43199539 85.16217232 C358.4397401 81.81852245 358.43505398 78.47510523 358.42736435 75.13146019 C358.43507969 73.69256019 358.43507969 73.69256019 358.4429509 72.22459149 C358.38299674 60.36967193 356.58878581 50.4231433 348.58246994 41.32060814 C338.71073494 32.00897158 326.01166686 31.98708324 313.26392746 32.00330162 C311.95897095 32.00103606 310.65401445 31.99877051 309.30951381 31.9964363 C305.69805601 31.99033334 302.08662142 31.99045012 298.47515965 31.99163067 C294.5759184 31.99183506 290.67668454 31.98631227 286.77744675 31.9815731 C279.14191541 31.97327414 271.50639179 31.9705186 263.87085631 31.96996073 C257.66259211 31.96948519 251.45433045 31.96742856 245.24606705 31.9642601 C227.635136 31.95545543 210.02421104 31.95084041 192.41327778 31.95159058 C190.98979157 31.95165051 190.98979157 31.95165051 189.53754807 31.95171165 C188.58739526 31.95175254 187.63724246 31.95179342 186.65829715 31.95183554 C171.26289686 31.95224191 155.86752104 31.94267411 140.47212783 31.92857329 C124.65506779 31.91420086 108.83801967 31.90730359 93.02095294 31.90816706 C84.14458988 31.90849874 75.26825247 31.9057644 66.39189529 31.89498901 C58.83382407 31.88587259 51.27579012 31.88371813 43.71771577 31.89049844 C39.86422123 31.89375793 36.01079817 31.89384101 32.15731049 31.88514519 C27.97290637 31.87580004 23.78866693 31.88207113 19.60425949 31.88977623 C17.79182845 31.88206089 17.79182845 31.88206089 15.94278264 31.87418967 C2.81154417 31.92752308 -8.78242369 33.40840186 -18.19487381 43.38701439 Z M-80.89409256 106.25029564 C-87.58395364 114.37069305 -89.27120162 121.72430355 -89.18063736 132.00761986 C-89.18320063 133.08026242 -89.18576391 134.15290499 -89.18840486 135.25805187 C-89.19333308 138.84025642 -89.1768652 142.42203638 -89.16044998 146.00420189 C-89.1596035 148.57677767 -89.16007925 151.14935419 -89.1617775 153.72192955 C-89.16334726 159.2543277 -89.15396926 164.78661935 -89.13706398 170.31899071 C-89.11263809 178.31776119 -89.10486505 186.3164804 -89.10110001 194.31528413 C-89.09454114 207.29413874 -89.07459534 220.27293665 -89.04619217 233.25176048 C-89.01863696 245.85624979 -88.99741054 258.46072368 -88.98466873 271.06523705 C-88.98388056 271.8427411 -88.98309239 272.62024516 -88.98228034 273.42130995 C-88.9783651 277.32198737 -88.97457401 281.22266491 -88.97084463 285.12334251 C-88.93976632 317.46127434 -88.88694594 349.79913648 -88.81987381 382.13701439 C-87.55697275 381.21201138 -86.29716473 380.28278477 -85.03862381 379.35185814 C-84.33672928 378.83486351 -83.63483475 378.31786888 -82.91167068 377.78520775 C-80.24957953 375.68766137 -77.9444084 373.34378597 -75.58940506 370.91435814 C-73.16736328 368.48162302 -70.5860599 366.26122909 -67.98784256 364.01982689 C-65.5714443 361.92126119 -63.19458357 359.78261739 -60.81987381 357.63701439 C-57.20311036 354.37310591 -53.55597773 351.1491049 -49.88237381 347.94951439 C-47.51022952 345.86490274 -45.16431316 343.75272795 -42.81987381 341.63701439 C-39.20311036 338.37310591 -35.55597773 335.1491049 -31.88237381 331.94951439 C-29.51022952 329.86490274 -27.16431316 327.75272795 -24.81987381 325.63701439 C-1.14770667 304.3104126 -1.14770667 304.3104126 8.47626877 304.51787376 C12.79061349 305.23906408 15.74061739 306.92356943 19.30903244 309.30498314 C20.33343681 309.96705772 20.33343681 309.96705772 21.37853622 310.64250755 C23.65710067 312.12412093 25.91973997 313.62782786 28.18012619 315.13701439 C28.9763237 315.6659832 29.77252121 316.19495201 30.59284592 316.73995018 C35.82261872 320.22012931 41.02888015 323.73418311 46.22697067 327.26146507 C49.04606562 329.17325473 51.86857418 331.07990404 54.69208908 332.98515892 C62.42006623 338.20118142 70.14573874 343.41997232 77.83590317 348.69164085 C80.35427586 350.41595551 82.8786859 352.13126615 85.40458298 353.84453392 C86.53833165 354.61721112 87.66895243 355.39449979 88.79624557 356.17656517 C90.32144101 357.23448422 91.85788708 358.27612988 93.39496994 359.31670189 C94.23149094 359.89146263 95.06801193 360.46622337 95.92988205 361.05840111 C98.04178968 362.30244888 98.04178968 362.30244888 100.01240158 361.99108601 C103.07677101 360.78374124 104.7944036 358.88448554 107.11396408 356.5504818 C107.5964187 356.06917932 108.07887331 355.58787685 108.57594776 355.09198946 C110.19210981 353.4760857 111.79729902 351.84970484 113.40278244 350.22319603 C114.55876943 349.063089 115.71543306 347.90365587 116.87272263 346.74484825 C119.36416245 344.24731101 121.85081498 341.74513534 124.33390427 339.23929596 C128.25932795 335.27811695 132.19559684 331.32783678 136.13349533 327.37906456 C143.78028407 319.70813161 151.41573907 312.02597276 159.0501976 304.34277153 C168.76690286 294.5652616 178.48918331 284.79331318 188.22056484 275.03040975 C192.13483818 271.10273566 196.04380161 267.16987372 199.94869614 263.23287594 C202.37787628 260.78560502 204.81114387 258.34242928 207.24549866 255.9003067 C208.37439445 254.7660643 209.50155031 253.63008714 210.62683868 252.4922657 C212.16207391 250.94037983 213.7033604 249.39476285 215.2462883 247.85053062 C216.10757843 246.98350045 216.96886856 246.11647028 217.85625839 245.22316647 C222.787282 240.79655272 226.87498729 240.69135156 233.34418869 240.83232689 C237.19594084 241.2461515 238.63211709 242.22500399 241.18012619 245.13701439 C241.62614182 245.6384597 242.07215744 246.13990501 242.53168869 246.65654564 C243.66485335 247.93763573 244.78451222 249.23072374 245.89496994 250.53154564 C248.91340132 253.97307338 252.04629391 257.30073499 255.18012619 260.63701439 C259.27231417 264.99957623 263.31176222 269.38197875 267.21137619 273.91826439 C270.74015652 277.89514381 274.40512982 281.74721726 278.04487228 285.62236595 C281.7159562 289.53937398 285.31260042 293.49598347 288.75043869 297.62138939 C290.40671846 299.37722696 292.23871323 300.70911086 294.18012619 302.13701439 C294.22689182 279.49256516 294.2621374 256.84812393 294.28375053 234.20363617 C294.29405358 223.68889944 294.30809535 213.17419276 294.3310051 202.65947533 C294.3509687 193.49253884 294.36384969 184.32562412 294.36830318 175.15866649 C294.37090552 170.30695073 294.37700194 165.45529722 294.3915863 160.60360146 C294.40521715 156.03182585 294.40933774 151.46013781 294.40634155 146.88834381 C294.40688926 145.21547977 294.41083379 143.54261263 294.41853714 141.86976624 C294.47876307 128.109826 294.19954427 116.07732258 284.54731369 105.31670189 C274.36058755 95.8880577 262.27373655 95.98655676 249.14367294 96.00330162 C247.18495655 95.99990329 247.18495655 95.99990329 245.18667012 95.9964363 C241.57747167 95.99034092 237.96829645 95.99044921 234.35909402 95.99163067 C230.46055203 95.99183525 226.56201739 95.9863105 222.66347885 95.9815731 C215.03142673 95.97327856 207.39938233 95.97051881 199.76732608 95.96996073 C193.56194621 95.96948503 187.35656887 95.96742759 181.1511898 95.9642601 C163.54616691 95.95545703 145.94115009 95.95084022 128.33612498 95.95159058 C126.91348688 95.95165051 126.91348688 95.95165051 125.46210861 95.95171165 C124.51252131 95.95175254 123.56293401 95.95179342 122.58457134 95.95183554 C107.19570115 95.95224198 91.80685543 95.94267204 76.41799232 95.92857329 C60.60542067 95.91420099 44.79286095 95.90730356 28.9802826 95.90816706 C20.1072879 95.90849872 11.23431885 95.90576519 2.36133003 95.89498901 C-5.19305718 95.88587282 -12.74740709 95.88371798 -20.30179743 95.89049844 C-24.15327366 95.8937579 -28.00467838 95.8938411 -31.85614777 95.88514519 C-36.03830887 95.87580004 -40.2203052 95.88207112 -44.40246964 95.88977623 C-45.61007488 95.88463267 -46.81768012 95.8794891 -48.06187946 95.87418967 C-60.48230184 95.92466355 -71.80325139 96.98825218 -80.89409256 106.25029564 Z " fill="#000000" transform="translate(121.81987380981445,31.862985610961914)"/>
<path d="M0 0 C11.94528931 7.92781533 20.33581483 18.16387469 23.30078125 32.421875 C25.5255806 44.84367138 23.68313182 58.03998531 16.80078125 68.7578125 C8.70319961 79.74203203 -1.33102254 87.26912842 -14.69921875 90.421875 C-28.69734543 91.92631763 -41.9020195 90.67335799 -53.57421875 82.171875 C-63.34245382 73.76538274 -71.51251825 63.46356155 -72.93652344 50.21386719 C-73.75328501 35.81620873 -72.43538978 22.82670224 -62.640625 11.4453125 C-46.30834863 -5.57706006 -21.45166001 -12.54192568 0 0 Z " fill="#000000" transform="translate(168.69921875,197.578125)"/>
</svg>
