<?xml version="1.0" encoding="UTF-8"?>
<!DOCTYPE svg PUBLIC "-//W3C//DTD SVG 1.1//EN" "http://www.w3.org/Graphics/SVG/1.1/DTD/svg11.dtd">
<svg xmlns="http://www.w3.org/2000/svg" version="1.1" width="512px" height="512px" style="shape-rendering:geometricPrecision; text-rendering:geometricPrecision; image-rendering:optimizeQuality; fill-rule:evenodd; clip-rule:evenodd" xmlns:xlink="http://www.w3.org/1999/xlink">
<g><path style="opacity:0.99" fill="#000000" d="M 291.5,60.5 C 297.82,60.3946 303.487,62.2279 308.5,66C 360.333,117.833 412.167,169.667 464,221.5C 470.365,230.082 471.031,239.082 466,248.5C 412.833,301.667 359.667,354.833 306.5,408C 291.395,415.078 280.229,411.244 273,396.5C 272.5,368.502 272.333,340.502 272.5,312.5C 249.191,311.195 226.857,315.361 205.5,325C 176.726,338.972 151.226,357.472 129,380.5C 111.426,399.066 95.7589,419.066 82,440.5C 69.6667,453.833 57.3333,453.833 45,440.5C 32.1965,364.707 49.8632,297.041 98,237.5C 144.482,185.849 202.649,158.849 272.5,156.5C 272.333,129.831 272.5,103.165 273,76.5C 275.98,67.346 282.146,62.0127 291.5,60.5 Z"/></g>
</svg>
